<svg aria-hidden="true" style="position: absolute; width: 0; height: 0; overflow: hidden;" version="1.1" xmlns="http://www.w3.org/2000/svg" xmlns:xlink="http://www.w3.org/1999/xlink">
<defs>
<symbol id="arrow" viewBox="0 0 18 32">
<path fill="#384564" style="fill: var(--color1, #384564)" d="M17.174 0.713c0.83 0.914 0.796 2.362-0.076 3.231l-11.103 11.52c-0.286 0.29-0.286 0.777 0 1.067l11.109 11.52c0.87 0.868 0.901 2.316 0.070 3.23-0.831 0.93-2.21 0.96-3.078 0.076l-13.401-13.638c-0.898-0.914-0.93-2.408-0.071-3.352l13.472-13.73c0.87-0.884 2.249-0.838 3.078 0.076z"></path>
</symbol>
<symbol id="bookmark" viewBox="0 0 25 32">
<path fill="none" stroke="#70778b" style="stroke: var(--color2, #70778b)" stroke-linejoin="miter" stroke-linecap="butt" stroke-miterlimit="4" stroke-width="2.7826" d="M1.391 5.565c0-2.049 1.661-3.71 3.71-3.71h14.841c2.049 0 3.71 1.661 3.71 3.71v22.252c0 1.622-1.935 2.463-3.121 1.356l-6.743-6.296c-0.713-0.666-1.819-0.666-2.532 0l-6.743 6.296c-1.186 1.107-3.121 0.266-3.121-1.356v-22.252z"></path>
</symbol>
<symbol id="location" viewBox="0 0 23 32">
<path fill="#878d9d" style="fill: var(--color3, #878d9d)" d="M11.556 32c0 0-11.556-10.719-11.556-19.556s5.174-12.444 11.556-12.444c6.382 0 11.556 3.608 11.556 12.444s-11.556 19.556-11.556 19.556zM11.556 17.778c3.436 0 6.222-2.786 6.222-6.222s-2.786-6.222-6.222-6.222c-3.436 0-6.222 2.786-6.222 6.222s2.786 6.222 6.222 6.222z"></path>
</symbol>
<symbol id="rating" viewBox="0 0 173 32">
<path fill="#384564" style="fill: var(--color1, #384564)" opacity="0.66204" d="M11.282 8.16c1.231-2.948 3.573-8.159 4.745-8.159 1.703-0.002 5.433 10.108 5.433 10.108s3.453 0.318 6.244 0.644c1.482 0.172 4.127 0.436 4.293 1.298 0.035 0.187-0.177 0.949-0.564 1.481-1.639 2.258-5.891 7.095-5.891 7.095s0.233 2.311 0.441 4.839c0.133 1.636 0.493 4.949 0.363 5.541-0.142 0.652-0.397 0.83-0.662 0.933-0.693 0.267-2.301-0.77-4.179-1.719-2.559-1.296-5.435-2.681-5.435-2.681s-1.897 1.047-4.146 2.069c-2.402 1.092-4.835 2.891-5.85 2.258-0.633-0.396-0.164-3.486 0.079-6.236 0.228-2.594 0.426-4.964 0.426-4.964s-1.409-1.746-3.049-3.612c-1.772-2.018-3.933-4.196-3.465-4.996 0.353-0.604 1.965-0.928 4.671-1.282 2.875-0.377 5.747-0.644 5.747-0.644s0.313-0.811 0.799-1.975z"></path>
<path fill="#384564" style="fill: var(--color1, #384564)" opacity="0.66204" d="M46.483 8.16c1.231-2.948 3.573-8.159 4.745-8.159 1.703-0.002 5.433 10.108 5.433 10.108s3.453 0.318 6.244 0.644c1.482 0.172 4.127 0.436 4.292 1.298 0.036 0.187-0.177 0.949-0.564 1.481-1.638 2.258-5.891 7.095-5.891 7.095s0.233 2.311 0.441 4.839c0.133 1.636 0.493 4.949 0.363 5.541-0.142 0.652-0.397 0.83-0.662 0.933-0.692 0.267-2.301-0.77-4.179-1.719-2.559-1.296-5.435-2.681-5.435-2.681s-1.897 1.047-4.146 2.069c-2.402 1.092-4.835 2.891-5.85 2.258-0.634-0.396-0.164-3.486 0.079-6.236 0.228-2.594 0.426-4.964 0.426-4.964s-1.409-1.746-3.049-3.612c-1.772-2.018-3.932-4.196-3.465-4.996 0.353-0.604 1.964-0.928 4.671-1.282 2.875-0.377 5.747-0.644 5.747-0.644s0.313-0.811 0.799-1.975z"></path>
<path fill="#384564" style="fill: var(--color1, #384564)" opacity="0.66204" d="M81.683 8.16c1.231-2.948 3.573-8.159 4.745-8.159 1.703-0.002 5.433 10.108 5.433 10.108s3.453 0.318 6.244 0.644c1.482 0.172 4.127 0.436 4.292 1.298 0.036 0.187-0.177 0.949-0.564 1.481-1.638 2.258-5.891 7.095-5.891 7.095s0.233 2.311 0.441 4.839c0.133 1.636 0.493 4.949 0.363 5.541-0.142 0.652-0.397 0.83-0.662 0.933-0.692 0.267-2.301-0.77-4.179-1.719-2.559-1.296-5.435-2.681-5.435-2.681s-1.897 1.047-4.146 2.069c-2.402 1.092-4.835 2.891-5.85 2.258-0.634-0.396-0.164-3.486 0.079-6.236 0.228-2.594 0.426-4.964 0.426-4.964s-1.409-1.746-3.049-3.612c-1.772-2.018-3.932-4.196-3.465-4.996 0.353-0.604 1.964-0.928 4.671-1.282 2.875-0.377 5.747-0.644 5.747-0.644s0.313-0.811 0.799-1.975z"></path>
<path fill="#384564" style="fill: var(--color1, #384564)" opacity="0.66204" d="M116.883 8.16c1.231-2.948 3.573-8.159 4.745-8.159 1.703-0.002 5.433 10.108 5.433 10.108s3.453 0.318 6.244 0.644c1.482 0.172 4.127 0.436 4.292 1.298 0.036 0.187-0.177 0.949-0.564 1.481-1.638 2.258-5.891 7.095-5.891 7.095s0.233 2.311 0.441 4.839c0.133 1.636 0.493 4.949 0.363 5.541-0.142 0.652-0.397 0.83-0.662 0.933-0.692 0.267-2.301-0.77-4.179-1.719-2.559-1.296-5.435-2.681-5.435-2.681s-1.897 1.047-4.146 2.069c-2.402 1.092-4.835 2.891-5.85 2.258-0.634-0.396-0.164-3.486 0.079-6.236 0.228-2.594 0.426-4.964 0.426-4.964s-1.409-1.746-3.049-3.612c-1.772-2.018-3.932-4.196-3.465-4.996 0.353-0.604 1.964-0.928 4.671-1.282 2.875-0.377 5.747-0.644 5.747-0.644s0.313-0.811 0.799-1.975z"></path>
<path fill="#384564" style="fill: var(--color1, #384564)" opacity="0.66204" d="M152.083 8.16c1.231-2.948 3.573-8.159 4.745-8.159 1.703-0.002 5.433 10.108 5.433 10.108s3.453 0.318 6.244 0.644c1.482 0.172 4.127 0.436 4.292 1.298 0.036 0.187-0.177 0.949-0.564 1.481-1.638 2.258-5.891 7.095-5.891 7.095s0.233 2.311 0.441 4.839c0.133 1.636 0.493 4.949 0.363 5.541-0.142 0.652-0.397 0.83-0.662 0.933-0.692 0.267-2.301-0.77-4.179-1.719-2.559-1.296-5.435-2.681-5.435-2.681s-1.897 1.047-4.146 2.069c-2.402 1.092-4.835 2.891-5.85 2.258-0.634-0.396-0.164-3.486 0.079-6.236 0.228-2.594 0.426-4.964 0.426-4.964s-1.409-1.746-3.049-3.612c-1.772-2.018-3.932-4.196-3.465-4.996 0.353-0.604 1.964-0.928 4.671-1.282 2.875-0.377 5.747-0.644 5.747-0.644s0.313-0.811 0.799-1.975z"></path>
</symbol>
<symbol id="rating-big" viewBox="0 0 171 32">
<path fill="#38415d" style="fill: var(--color1, #38415d)" d="M11.909 8.159c1.3-2.948 3.771-8.159 5.009-8.159 1.797-0.002 5.735 10.108 5.735 10.108s3.645 0.318 6.591 0.644c1.564 0.172 4.356 0.436 4.531 1.298 0.037 0.187-0.187 0.949-0.596 1.481-1.73 2.258-6.218 7.095-6.218 7.095s0.246 2.311 0.465 4.839c0.141 1.636 0.521 4.949 0.383 5.541-0.15 0.652-0.419 0.83-0.699 0.933-0.731 0.267-2.429-0.77-4.412-1.719-2.701-1.296-5.736-2.681-5.736-2.681s-2.002 1.047-4.376 2.069c-2.536 1.092-5.103 2.891-6.175 2.258-0.669-0.396-0.173-3.486 0.084-6.236 0.241-2.594 0.449-4.964 0.449-4.964s-1.487-1.746-3.219-3.612c-1.871-2.018-4.151-4.196-3.657-4.996 0.373-0.604 2.074-0.928 4.93-1.282 3.035-0.377 6.066-0.644 6.066-0.644s0.33-0.811 0.843-1.975z"></path>
<path fill="#38415d" style="fill: var(--color1, #38415d)" d="M45.687 8.159c1.3-2.948 3.771-8.159 5.009-8.159 1.797-0.002 5.735 10.108 5.735 10.108s3.645 0.318 6.591 0.644c1.564 0.172 4.356 0.436 4.531 1.298 0.037 0.187-0.187 0.949-0.596 1.481-1.73 2.258-6.218 7.095-6.218 7.095s0.246 2.311 0.465 4.839c0.141 1.636 0.521 4.949 0.383 5.541-0.15 0.652-0.419 0.83-0.699 0.933-0.731 0.267-2.429-0.77-4.412-1.719-2.702-1.296-5.737-2.681-5.737-2.681s-2.002 1.047-4.376 2.069c-2.536 1.092-5.103 2.891-6.175 2.258-0.669-0.396-0.173-3.486 0.084-6.236 0.241-2.594 0.449-4.964 0.449-4.964s-1.487-1.746-3.219-3.612c-1.871-2.018-4.151-4.196-3.657-4.996 0.373-0.604 2.074-0.928 4.931-1.282 3.035-0.377 6.066-0.644 6.066-0.644s0.33-0.811 0.843-1.975z"></path>
<path fill="#38415d" style="fill: var(--color1, #38415d)" d="M79.464 8.159c1.3-2.948 3.771-8.159 5.009-8.159 1.797-0.002 5.735 10.108 5.735 10.108s3.645 0.318 6.591 0.644c1.564 0.172 4.356 0.436 4.531 1.298 0.037 0.187-0.187 0.949-0.596 1.481-1.73 2.258-6.218 7.095-6.218 7.095s0.246 2.311 0.465 4.839c0.141 1.636 0.521 4.949 0.383 5.541-0.15 0.652-0.419 0.83-0.699 0.933-0.731 0.267-2.429-0.77-4.412-1.719-2.701-1.296-5.737-2.681-5.737-2.681s-2.002 1.047-4.376 2.069c-2.536 1.092-5.103 2.891-6.175 2.258-0.669-0.396-0.173-3.486 0.084-6.236 0.241-2.594 0.449-4.964 0.449-4.964s-1.487-1.746-3.219-3.612c-1.871-2.018-4.151-4.196-3.657-4.996 0.373-0.604 2.074-0.928 4.93-1.282 3.035-0.377 6.066-0.644 6.066-0.644s0.33-0.811 0.843-1.975z"></path>
<path fill="#38415d" style="fill: var(--color1, #38415d)" d="M115.020 8.159c1.3-2.948 3.771-8.159 5.009-8.159 1.797-0.002 5.735 10.108 5.735 10.108s3.645 0.318 6.591 0.644c1.564 0.172 4.356 0.436 4.531 1.298 0.037 0.187-0.187 0.949-0.596 1.481-1.73 2.258-6.218 7.095-6.218 7.095s0.246 2.311 0.465 4.839c0.141 1.636 0.521 4.949 0.383 5.541-0.15 0.652-0.419 0.83-0.699 0.933-0.731 0.267-2.429-0.77-4.412-1.719-2.701-1.296-5.737-2.681-5.737-2.681s-2.002 1.047-4.376 2.069c-2.536 1.092-5.103 2.891-6.175 2.258-0.669-0.396-0.173-3.486 0.084-6.236 0.241-2.594 0.449-4.964 0.449-4.964s-1.487-1.746-3.219-3.612c-1.871-2.018-4.151-4.196-3.657-4.996 0.373-0.604 2.074-0.928 4.93-1.282 3.035-0.377 6.066-0.644 6.066-0.644s0.33-0.811 0.843-1.975z"></path>
<path fill="#38415d" style="fill: var(--color1, #38415d)" d="M148.798 8.159c1.3-2.948 3.771-8.159 5.009-8.159 1.798-0.002 5.735 10.108 5.735 10.108s3.645 0.318 6.591 0.644c1.564 0.172 4.356 0.436 4.531 1.298 0.037 0.187-0.187 0.949-0.596 1.481-1.73 2.258-6.218 7.095-6.218 7.095s0.246 2.311 0.465 4.839c0.141 1.636 0.521 4.949 0.383 5.541-0.15 0.652-0.419 0.83-0.699 0.933-0.731 0.267-2.429-0.77-4.412-1.719-2.702-1.296-5.737-2.681-5.737-2.681s-2.002 1.047-4.376 2.069c-2.536 1.092-5.103 2.891-6.175 2.258-0.669-0.396-0.173-3.486 0.084-6.236 0.241-2.594 0.449-4.964 0.449-4.964s-1.487-1.746-3.219-3.612c-1.871-2.018-4.151-4.196-3.657-4.996 0.373-0.604 2.074-0.928 4.93-1.282 3.035-0.377 6.066-0.644 6.066-0.644s0.33-0.811 0.843-1.975z"></path>
</symbol>
<symbol id="share" viewBox="0 0 30 32">
<path fill="#70778b" style="fill: var(--color2, #70778b)" d="M21.664 23.855l-11.408-6.667c0.080-0.37 0.144-0.739 0.144-1.124s-0.064-0.755-0.144-1.125l11.28-6.602c0.864 0.803 2 1.301 3.264 1.301 2.656 0 4.8-2.153 4.8-4.819s-2.144-4.819-4.8-4.819c-2.656 0-4.8 2.153-4.8 4.819 0 0.386 0.064 0.755 0.144 1.125l-11.28 6.602c-0.864-0.803-2-1.301-3.264-1.301-2.656 0-4.8 2.153-4.8 4.819s2.144 4.819 4.8 4.819c1.264 0 2.4-0.498 3.264-1.301l11.392 6.683c-0.080 0.337-0.128 0.691-0.128 1.044 0 2.586 2.096 4.691 4.672 4.691s4.672-2.104 4.672-4.691c0-2.586-2.096-4.691-4.672-4.691-1.216 0-2.304 0.482-3.136 1.237z"></path>
</symbol>
<symbol id="star" viewBox="0 0 32 32">
<path d="M32 12.408l-11.056-1.607-4.944-10.018-4.944 10.018-11.056 1.607 8 7.798-1.889 11.011 9.889-5.199 9.889 5.199-1.889-11.011 8-7.798zM16 23.547l-6.983 3.671 1.334-7.776-5.65-5.507 7.808-1.134 3.492-7.075 3.492 7.075 7.807 1.134-5.65 5.507 1.334 7.776-6.983-3.671z"></path>
</symbol>

</defs>
</svg>
